<?xml version="1.0" encoding="UTF-8" standalone="no"?>
<!-- Created with Inkscape (http://www.inkscape.org/) -->

<svg
   width="158.75"
   height="158.22273"
   viewBox="0 0 158.75 158.22273"
   version="1.1"
   id="svg5"
   inkscape:version="1.2.1 (9c6d41e410, 2022-07-14)"
   xml:space="preserve"
   sodipodi:docname="favicon.svg"
   xmlns:inkscape="http://www.inkscape.org/namespaces/inkscape"
   xmlns:sodipodi="http://sodipodi.sourceforge.net/DTD/sodipodi-0.dtd"
   xmlns="http://www.w3.org/2000/svg"
   xmlns:svg="http://www.w3.org/2000/svg"><sodipodi:namedview
     id="namedview7"
     pagecolor="#ffffff"
     bordercolor="#000000"
     borderopacity="0.25"
     inkscape:showpageshadow="false"
     inkscape:pageopacity="0.0"
     inkscape:pagecheckerboard="0"
     inkscape:deskcolor="#d1d1d1"
     inkscape:document-units="px"
     showgrid="false"
     inkscape:zoom="1.0300189"
     inkscape:cx="199.51091"
     inkscape:cy="315.5282"
     inkscape:window-width="1920"
     inkscape:window-height="1046"
     inkscape:window-x="-11"
     inkscape:window-y="-11"
     inkscape:window-maximized="1"
     inkscape:current-layer="layer1" /><defs
     id="defs2" /><g
     inkscape:label="Layer 1"
     inkscape:groupmode="layer"
     id="layer1"
     transform="translate(-0.9008607,-21.690374)"><path
       style="fill:#000000;stroke-width:0.999999"
       d="m 16.046995,179.41566 c -3.561424,-0.93959 -5.540861,-2.18812 -9.0065267,-5.68083 -2.4728594,-2.49216 -3.5125675,-3.79774 -4.2802225,-5.37475 -2.52433994,-5.18579 -2.47719509,-10.74423 0.1343337,-15.83818 1.0452198,-2.03878 2.3783293,-3.47309 14.3663845,-15.45696 8.325027,-8.32212 14.190088,-13.92979 15.851671,-15.15599 5.130983,-3.78656 10.516591,-6.6063 14.65611,-7.67349 1.545378,-0.39841 2.90496,-0.46673 6.629052,-0.33316 l 4.684948,0.16804 6.793835,-6.79911 6.793835,-6.7991 L 50.953078,78.753138 C 30.30391,58.102389 29.18119,57.034139 28.126619,57.034139 c -0.610018,0 -1.79723,-0.22863 -2.638248,-0.508069 C 24.134731,56.076306 22.77255,54.838908 13.618689,45.743689 7.9313818,40.092817 2.9047763,34.841051 2.4484537,34.073097 1.723656,32.853325 1.6187742,32.343416 1.6187742,30.039401 c 0,-2.31821 0.1032353,-2.813033 0.8529745,-4.088424 2.3027904,-3.917309 7.1011783,-5.368142 11.1154333,-3.360844 1.837842,0.918998 21.368576,20.416208 22.280626,22.24238 0.355924,0.712659 0.736568,2.056683 0.845876,2.986719 l 0.198742,1.690976 21.681715,21.680055 21.681715,21.680055 21.681714,-21.680055 21.68171,-21.680055 0.19875,-1.690976 c 0.10929,-0.930036 0.48995,-2.27406 0.84587,-2.986719 0.91206,-1.826172 20.44279,-21.323382 22.28063,-22.24238 4.01425,-2.007298 8.81265,-0.556465 11.11544,3.360844 0.74974,1.275391 0.85297,1.770214 0.85297,4.088424 0,2.304015 -0.10484,2.813924 -0.82968,4.033696 -0.45632,0.767954 -5.48293,6.01972 -11.17024,11.670592 -9.15386,9.095219 -10.51604,10.332617 -11.86967,10.782381 -0.84103,0.279439 -2.02824,0.508069 -2.63826,0.508069 -1.05457,0 -2.17728,1.06825 -22.82646,21.718999 l -21.717332,21.718992 6.793833,6.7991 6.793839,6.79911 4.68494,-0.16804 c 3.7241,-0.13357 5.08368,-0.0652 6.62906,0.33316 4.13951,1.06719 9.52513,3.88693 14.65611,7.67349 1.66158,1.2262 7.52664,6.83387 15.85167,15.15599 11.98805,11.98387 13.32116,13.41818 14.36638,15.45696 2.61154,5.09395 2.65868,10.65239 0.13434,15.83818 -1.43386,2.9456 -6.71774,8.26877 -9.56335,9.63445 -5.3287,2.55739 -10.48651,2.55813 -15.8245,0.002 -1.79712,-0.86047 -3.43117,-2.37244 -14.99923,-13.87852 -15.13752,-15.05642 -17.429478,-17.7698 -20.987599,-24.84656 -2.197753,-4.3711 -2.838999,-6.80819 -2.819864,-10.71704 0.0091,-1.87722 0.09728,-4.18108 0.195746,-5.11968 l 0.179044,-1.70657 -6.847931,-6.82352 -6.84793,-6.82361 -6.847929,6.82361 -6.847932,6.8236 0.179044,1.70657 c 0.09847,0.93862 0.186559,3.24248 0.195746,5.1197 0.01915,3.90883 -0.622111,6.34592 -2.819865,10.71703 -3.558121,7.07675 -5.85008,9.79014 -20.9876,24.84656 -11.568058,11.50609 -13.202107,13.01804 -14.999235,13.87852 -3.943517,1.88818 -8.359595,2.40596 -12.10109,1.41887 z"
       id="path323" /></g></svg>
