<?xml version="1.0" encoding="UTF-8" standalone="no"?>
<!-- Created with Inkscape (http://www.inkscape.org/) -->

<svg
   width="158.75"
   height="158.22273"
   viewBox="0 0 158.75 158.22273"
   version="1.1"
   id="svg5"
   inkscape:version="1.2.1 (9c6d41e410, 2022-07-14)"
   xml:space="preserve"
   sodipodi:docname="favicon.svg"
   xmlns:inkscape="http://www.inkscape.org/namespaces/inkscape"
   xmlns:sodipodi="http://sodipodi.sourceforge.net/DTD/sodipodi-0.dtd"
   xmlns="http://www.w3.org/2000/svg"
   xmlns:svg="http://www.w3.org/2000/svg"><sodipodi:namedview
     id="namedview7"
     pagecolor="#ffffff"
     bordercolor="#000000"
     borderopacity="0.25"
     inkscape:showpageshadow="false"
     inkscape:pageopacity="0.0"
     inkscape:pagecheckerboard="0"
     inkscape:deskcolor="#d1d1d1"
     inkscape:document-units="px"
     showgrid="false"
     inkscape:zoom="2.0600378"
     inkscape:cx="99.512737"
     inkscape:cy="105.8233"
     inkscape:window-width="1920"
     inkscape:window-height="1046"
     inkscape:window-x="-11"
     inkscape:window-y="-11"
     inkscape:window-maximized="1"
     inkscape:current-layer="layer1" /><defs
     id="defs2" /><g
     inkscape:label="Layer 1"
     inkscape:groupmode="layer"
     id="layer1"
     transform="translate(-0.9008607,-21.690374)"><path
       style="fill:#000000;stroke-width:1"
       d="m 30.973395,161.1463 c -2.733771,-0.72123 -4.2532,-1.67962 -6.913466,-4.36064 -1.898182,-1.913 -2.696268,-2.91518 -3.285524,-4.12569 -1.9377,-3.98065 -1.901512,-8.24734 0.103116,-12.15749 0.802317,-1.56498 1.825621,-2.66596 11.027725,-11.86485 6.390342,-6.38812 10.892399,-10.6926 12.167841,-11.63384 3.938573,-2.90659 8.072599,-5.07104 11.250119,-5.89022 1.186242,-0.30582 2.229866,-0.35826 5.088502,-0.25573 l 3.596195,0.12899 5.214989,-5.21905 5.214988,-5.21902 L 57.767519,83.877129 C 41.91709,68.025488 41.055284,67.205492 40.245789,67.205492 c -0.468254,0 -1.379566,-0.175497 -2.025136,-0.389996 -1.039062,-0.345243 -2.084681,-1.295076 -9.111241,-8.276622 -4.365612,-4.337644 -8.224065,-8.368933 -8.574341,-8.958419 -0.556359,-0.936304 -0.636867,-1.327713 -0.636867,-3.09629 0,-1.779472 0.07924,-2.159301 0.654748,-3.138299 1.767636,-3.006949 5.450908,-4.120617 8.532275,-2.579803 1.410739,0.705428 16.402651,15.671605 17.102746,17.073387 0.273209,0.547041 0.565394,1.578722 0.649299,2.292623 L 46.989828,61.430076 63.632846,78.07182 80.275863,94.713564 96.918881,78.07182 113.5619,61.430076 l 0.15257,-1.298003 c 0.0838,-0.713901 0.37609,-1.745582 0.64929,-2.292623 0.7001,-1.401782 15.69201,-16.367959 17.10275,-17.073387 3.08136,-1.540814 6.76464,-0.427146 8.53227,2.579803 0.57551,0.978998 0.65475,1.358827 0.65475,3.138299 0,1.768577 -0.0805,2.159986 -0.63686,3.09629 -0.35028,0.589486 -4.20874,4.620775 -8.57435,8.958419 -7.02656,6.981546 -8.07217,7.931379 -9.11124,8.276622 -0.64557,0.214499 -1.55688,0.389996 -2.02513,0.389996 -0.8095,0 -1.6713,0.819996 -17.52174,16.671637 l -16.670363,16.671631 5.214989,5.21902 5.214992,5.21905 3.596192,-0.12899 c 2.85864,-0.10248 3.90227,-0.0501 5.08851,0.25573 3.17752,0.81918 7.31155,2.98363 11.25012,5.89022 1.27544,0.94124 5.77749,5.24572 12.16784,11.63384 9.2021,9.19889 10.22541,10.29987 11.02772,11.86485 2.00463,3.91015 2.04083,8.17684 0.10306,12.15749 -1.10063,2.26105 -5.15657,6.34716 -7.34088,7.39546 -4.09034,1.96306 -8.04952,1.96363 -12.14698,0.001 -1.37948,-0.6605 -2.63379,-1.82109 -11.51351,-10.65323 -11.619656,-11.5574 -13.378977,-13.64021 -16.110213,-19.07238 -1.687009,-3.35528 -2.179233,-5.22601 -2.164545,-8.22647 0.0069,-1.44096 0.07467,-3.20942 0.150256,-3.92989 l 0.137435,-1.30997 -5.256514,-5.23779 -5.256514,-5.23784 -5.256511,5.23784 -5.256516,5.23785 0.137436,1.30997 c 0.07559,0.7205 0.143204,2.48895 0.150256,3.92991 0.0147,3.00045 -0.477536,4.87117 -2.164545,8.22646 -2.731236,5.43216 -4.490558,7.51498 -16.110212,19.07238 -8.879713,8.83214 -10.134019,9.99272 -11.513504,10.65323 -3.027069,1.44938 -6.416878,1.84684 -9.288872,1.08913 z"
       id="path323" /></g></svg>
